<svg version="1" xmlns="http://www.w3.org/2000/svg" width="682.667" height="682.667" viewBox="0 0 512.000000 512.000000"><path d="M232.5 3.1C197.6 9.2 159.9 25.5 121.9 51c-25.2 17-49.7 40.9-64.8 63.4C20.2 169.1 20.2 237 57 277.3c15.7 17.2 39.1 28.5 69.4 33.7 14.6 2.5 47 4.4 49.7 2.9 2.7-1.4 2.4-4.1-.8-7.1-2.6-2.4-3.8-2.6-18.8-3.7-39.7-2.8-66.1-11.3-86.3-27.9-17.8-14.5-29.4-46.1-27.8-75.4 2.1-38.8 19.9-75.3 53-108.3 24.2-24.2 51.7-42.8 85.4-58.1 14.9-6.6 38-14.5 51.3-17.5 13.6-3 38.7-3.7 50-1.4 28.3 5.7 42.2 20.6 47.9 51.5 3.9 20.8-.4 58.3-11.1 97l-4 14.5-11.5 13c-37.5 42.1-70.1 90.3-85.4 125.8-9.7 22.7-16.3 44.4-24.4 79.7-9.2 40.5-20.2 99.6-19.1 103 .4 1.1 2.3 3.6 4.2 5.5 4.3 4.2 8.4 4.6 11.5 1.2 6.4-7.2 37.5-67.4 53-102.7 25.6-58.4 58.7-142.5 73.3-186.8l3.7-11.3 20.7-21.1c21.6-22.1 39.3-38.7 78.1-73.3 26.7-23.9 56-52.3 56-54.4 0-2.1-7.5-9.1-9.8-9.1-2.1 0-7.5 4-31.7 23.3-34.5 27.6-63.2 52.6-85.9 74.7-9.8 9.5-13.7 12.8-13.2 11 2.5-9.6 7.7-38.6 8.7-49 2.6-27.3-2-54.6-11.9-70.9-7.2-12-20.8-23.6-33.5-28.8-15.8-6.5-42.4-8.2-65.2-4.2zm58.6 241.6C264.3 317.4 242.6 369 219.5 415c-10.3 20.5-14.7 28.3-14 25 3.1-15.5 12.5-55 15.9-67.1 11.2-39.2 24.9-68.4 48.8-103.9 7.1-10.5 22.8-32 23.4-32 .2 0-.9 3.5-2.5 7.7z"/></svg>