<svg version="1" xmlns="http://www.w3.org/2000/svg" width="682.667" height="682.667" viewBox="0 0 512.000000 512.000000"><path d="M244.9 1.4c-.2.2-3.1.7-6.4 1.1-19 2.1-46.3 10.7-69.7 21.9C110.1 52.6 67 91.4 45.4 135.5 35 156.8 29.8 178.8 29.8 201c0 37.2 13.9 67.4 40.2 87.5 21.8 16.7 53.3 24.9 97.8 25.6 9.9.2 12.3-2.3 7.1-7.3-2.2-2.2-4.2-2.6-17.4-3.3-6-.4-12.1-.8-13.5-1-1.4-.2-5-.6-8-1-3-.3-7.3-1-9.5-1.5s-5.1-1.1-6.5-1.4c-4.5-.9-6.4-1.4-13.5-3.6-3.8-1.2-7.4-2.5-8-2.9-.5-.5-3-1.6-5.5-2.5-11.4-4.4-26.4-15.9-33.4-25.6-16.1-22.2-21.3-51.6-15-85.3 1.9-10.6 8.7-28.8 15.1-40.6 3.6-6.7 12.7-21.2 15.6-24.7 17.3-21.4 32.2-35.5 52.1-49.8 33.4-23.9 79.5-44.4 111.1-49.2 11.5-1.8 15.4-2 25.7-1.9 39.8.6 59.8 17 66.2 54 1.4 8 1.5 33.8.2 42-.4 2.2-.9 5.6-1.2 7.5-.3 1.9-.8 4.6-1 6-1.7 10.7-3.1 17.3-6.1 29.5-6.3 25.9-6.3 25.7-15.8 35.9-4.6 4.9-20.6 23.8-27.6 32.6-23 29.2-45.6 64.2-56.9 88.5-10.5 22.3-21.3 55.9-27.5 85-.6 2.8-4.3 19.4-6.5 29.5-1.7 7.9-5.2 25.7-6.4 32.5-.3 1.6-1.9 10.8-3.5 20.4-4 22.5-4 23.9.2 27.8 4.2 4 7.2 4.9 10.2 2.9 2.4-1.6 4.8-5.4 17.2-27.6 13.7-24.5 33.8-67.3 50.9-108.5 5.8-13.8 10.8-25.9 11.3-27 .5-1.1 2.8-6.7 5.1-12.5 2.2-5.8 4.5-11.4 5-12.5 5.3-11.6 28.2-73.1 37.1-99.5 2.7-8.2 5.3-13.9 7.4-16.5 8.9-11.1 49-50.2 76.5-74.6 4.1-3.7 8.7-7.7 10.1-9 1.4-1.3 5.9-5.3 9.9-8.9 4.1-3.6 8.4-7.4 9.6-8.5C463.3 69.7 474 59.1 474 56.4c0-3.3-5.2-8.7-8.4-8.7-1.4 0-4.3 1.3-6.3 2.9-10.9 8-54.3 43-62.8 50.5-1.6 1.5-7.3 6.4-12.5 10.9-12.7 11.1-26 23.3-39.4 36.2-6.1 5.8-11.2 10.5-11.3 10.4-.1-.1.7-3.5 1.7-7.6 1.1-4.1 2.4-10 3-13 1.2-6.8 1.8-9.8 2.5-13 1.6-7.8 2.9-24.3 2.8-35-.2-35-10.6-59.4-31.7-74.4-14.1-10.1-29.7-14.3-53.2-14.4-7.3-.1-13.3.1-13.5.2zm40.5 259.7c-9.9 26.4-26.9 69.5-31 78.7-1.3 2.9-2.4 5.4-2.4 5.7 0 3-46.6 100.2-47.6 99.3-.1-.2.1-2.1.6-4.3.5-2.2 1.1-5.1 1.4-6.5.3-1.4.7-3.4 1-4.5.2-1.1 1.9-8.5 3.6-16.5 11.3-51.2 22.3-82.5 40.4-114.5 9-15.8 26.6-42.5 33.1-50.2.6-.6 3-3.9 5.5-7.2 2.4-3.3 4.5-5.9 4.7-5.8.1.2-4 11.8-9.3 25.8z"/></svg>