<?xml version="1.0" encoding="UTF-8"?><svg id="Stack" xmlns="http://www.w3.org/2000/svg" viewBox="0 0 657.14 573.26"><path id="Jacob-J1" d="m141.73,279.55s-65.27,4.09-102.24-33.93-16.51-93.27-2.46-119.7c11.97-22.53,29.57-45.41,71.11-73.23,23.24-14.43,48.93-28.87,95.05-37.32,4.93-.35,47.88-6.69,66.89,20.77,8.02,11.18,23.24,40.13,9.86,95.76-7.39,29.57-36.61,120.4-51.75,154.2-15.14,33.8-34.5,81.68-48.93,109.49-14.43,27.81-25.89,48.93-25.89,48.93" fill="none" stroke="blue" stroke-linecap="round" stroke-linejoin="round" stroke-width="9"/><path id="Jacob-J2" d="m150.57,445.8s12.33-68.37,18.02-90.81c5.21-20.56,18.91-60.95,28.16-80.05,9.94-20.51,31.68-52.71,50.94-75.62,14.87-15.82,47.78-51.57,58.22-61.38s93.02-81.95,93.02-81.95" fill="none" stroke="blue" stroke-linecap="round" stroke-linejoin="round" stroke-width="13"/><path id="Jacob-a1" d="m336.32,231.99s-2.94-4.62-13.37-4.36c-10.43.26-16.85,6.47-16.85,6.47,0,0-3.74,9.51-3.48,11.23" fill="none" stroke="blue" stroke-linecap="round" stroke-linejoin="round" stroke-width="13"/><path id="Jacob-a2" d="m302.94,245.69s8.62-1.75,12.19-3.63,10.24-5.22,10.24-5.22" fill="none" stroke="blue" stroke-linecap="round" stroke-linejoin="round" stroke-width="11"/><path id="Jacob-a3" d="m326.69,236.22s.38,9.78,8.58,9.73c8.2-.05,20.76-6.65,20.76-6.65" fill="none" stroke="blue" stroke-linecap="round" stroke-linejoin="round" stroke-width="7"/><path id="Jacob-c1" d="m356.03,239.31s8.52-6.99,11.93-9.11c2.01-1.25,6.15-3.82,11.09-3.29,3.35.36,3.99,1.72.67,6.2" fill="none" stroke="blue" stroke-linecap="round" stroke-linejoin="round" stroke-width="8"/><path id="Jacob-c2" d="m362.2,234.39s-2.62,6.13,1.08,8.01c1.52.33,9.69.63,16.73-1.31,7.03-1.93,29.37-8.84,29.37-8.84" fill="none" stroke="blue" stroke-linecap="round" stroke-linejoin="round" stroke-width="8"/><path id="Jacob-o" d="m409.38,232.26s-4.74,4.37-5.07,5.98c-.3,1.46,2.86,4.41,6.65,4.55,7.22.27,14.18-4.01,16.23-5.88s7.99-8,3.67-10.72-13.81-3.57-19.53-2.19-9.06,3.84-7.88,5.54,5.94,3.47,14.35,3.31c8.42-.16,21.69-2.35,25.57-2.99s6.58-1.17,6.58-1.17" fill="none" stroke="blue" stroke-linecap="round" stroke-linejoin="round" stroke-width="8"/><path id="Jacob-b" d="m449.96,228.69l20.25-3.92s12.86-2.61,13.31,1.96-1.24,5.87-3.07,7.55c-2.88,2.64-10.03,7.21-17.4,8.36-7.37,1.15-10.05-.67-10.85-2.89s5.12-15.07,10.65-20.53,16.39-17.4,19.65-23.57c.78-1.48,1.31-4.45,1.47-6.07" fill="none" stroke="blue" stroke-linecap="round" stroke-linejoin="round" stroke-width="8"/><path id="Day-d1" d="m253.98,374.57s30.51-20.15,41.99-25.19c11.48-5.04,55.71-25.19,78.66-30.23,22.95-5.04,53.47-13.16,82.3-11.2,28.83,1.96,43.95,2.8,67.18,16.8,19.32,13.44,33.03,27.99,33.31,52.63.28,24.63-7.84,47.87-18.48,64.94-10.64,17.08-33.31,44.51-45.91,55.15-12.6,10.64-37.23,31.01-54.59,40.14-17.36,9.13-45.07,23.4-67.46,23.12-22.39-.28-32.19-7.84-42.83-19.6-10.64-11.76-1.68-43.67,6.44-56.27,8.12-12.6,27.99-33.87,46.19-44.23,18.2-10.36,39.47-22.39,66.06-31.35,26.59-8.96,58.23-18.2,80.34-21.83,22.11-3.64,62.98-8.12,89.58-5.88" fill="none" stroke="blue" stroke-linecap="round" stroke-linejoin="round" stroke-width="8"/><path id="Day-d2" d="m431.3,381.18s2.24,1.46.69,7.39-23.99,57.23-23.99,57.23c0,0-18.88,40.69-21.99,55.23-2.01,9.39-4.5,24.37-4.5,24.37" fill="none" stroke="blue" stroke-linecap="round" stroke-linejoin="round" stroke-width="12"/><path id="Day-a1" d="m573.09,471.17s-2.64-4.49-12.01-4.23c-9.37.26-15.14,6.29-15.14,6.29,0,0-3.36,9.24-3.12,10.9" fill="none" stroke="blue" stroke-linecap="round" stroke-linejoin="round" stroke-width="13"/><path id="Day-a2" d="m543.09,484.47s7.74-1.7,10.95-3.53c3.21-1.83,9.2-5.07,9.2-5.07" fill="none" stroke="blue" stroke-linecap="round" stroke-linejoin="round" stroke-width="11"/><path id="Day-a3" d="m564.43,475.28s.34,9.5,7.71,9.45c7.37-.05,17.44-5.32,17.44-5.32" fill="none" stroke="blue" stroke-linecap="round" stroke-linejoin="round" stroke-width="7"/><path id="Day-y1" d="m589.58,479.41c4.18-1.89,6.44-2.41,8.65-5.07,2.47-2.96,3.7-6.11-.91-8.45" fill="none" stroke="blue" stroke-linecap="round" stroke-linejoin="round" stroke-width="7"/><path id="Day-y2" d="m596.67,475.87s-3.86,6.85,1.55,7.42c5.41.57,11.27-1.07,14.73-3.88s9.91-7.21,11.46-9.64,8-10.84,9.43-11.86" fill="none" stroke="blue" stroke-linecap="round" stroke-linejoin="round" stroke-width="7"/><path id="Day-y3" d="m623.48,470.92s-7.96,13.54-10.17,17.55c-2.21,4.01-11.14,19.88-12.87,25.16s-5.14,13.71-5.09,16.21" fill="none" stroke="blue" stroke-linecap="round" stroke-linejoin="round" stroke-width="7"/></svg>